#!OML:ASF H:\ManfredETheater\Project 1\Capture day 1\Session 1\subject.ASF
:FULLY-SPECIFIED
:DEGREES
91
root -1.22689 14.5994 -4.95707 -201.168 27.127 -192.833
lowerback 19.2583 -2.97421 -1.95827
upperback 2.91356 -3.64925 2.6842
thorax -7.29636 -1.49624 4.90286
lowerneck -13.2321 6.74898 3.87513
upperneck 15.6568 10.5777 -9.54282
head 7.74229 4.60041 -2.58001
rclavicle 4.57205e-014 2.22639e-014
rhumerus -53.3923 -19.0167 -32.732
rradius 92.9455
rwrist -17.3491
rhand -29.3898 -5.59668
rfingers 7.12502
rthumb -2.72813 -35.559
lclavicle 4.57205e-014 2.22639e-014
lhumerus -50.1978 -16.5301 80.576
lradius 108.454
lwrist -3.83865
lhand -30.2517 -5.03786
lfingers 7.12502
lthumb -3.56049 24.9121
rfemur -48.1798 -12.5437 18.4865
rtibia 81.3105
rfoot -23.7155 -4.01684
rtoes -42.0659
lfemur -34.0267 9.72392 -28.1823
ltibia 91.603
lfoot -11.8807 -2.69501
ltoes -28.2808
92
root -1.22641 14.644 -5.36491 -201.896 27.6652 -193.324
lowerback 19.3193 -3.12624 -1.86144
upperback 3.10211 -3.80101 2.74131
thorax -7.11209 -1.56887 4.94002
lowerneck -13.147 7.07222 4.22954
upperneck 15.7956 11.1252 -10.1716
head 7.87347 4.83687 -2.77409
rclavicle -4.70126e-014 0
rhumerus -50.7774 -21.051 -30.4957
rradius 94.6553
rwrist -18.1749
rhand -29.7657 -5.82887
rfingers 7.12502
rthumb -3.09122 -35.7862
lclavicle -4.70126e-014 0
lhumerus -51.5475 -16.9659 80.3276
lradius 108.043
lwrist -4.38922
lhand -30.1592 -4.9384
lfingers 7.12502
lthumb -3.47123 25.0131
rfemur -47.9483 -12.2738 19.3322
rtibia 78.8001
rfoot -23.1875 -3.44987
rtoes -42.3704
lfemur -33.6811 10.233 -28.2873
ltibia 92.6913
lfoot -8.53435 -5.81207
ltoes -26.2252
93
root -1.22415 14.6848 -5.77045 -202.645 28.1594 -193.727
lowerback 19.4292 -3.26685 -1.70342
upperback 3.29778 -3.91901 2.82402
thorax -6.95223 -1.62361 4.96487
lowerneck -13.0527 7.35243 4.55183
upperneck 15.9925 11.6228 -10.7464
head 8.01885 5.05142 -2.95096
rclavicle -1.68967e-014 -3.49861e-014
rhumerus -48.0026 -23.2341 -28.6403
rradius 96.3164
rwrist -18.5145
rhand -29.986 -5.79653
rfingers 7.12502
rthumb -3.30398 -35.7507
lclavicle -1.68967e-014 -3.49861e-014
lhumerus -52.907 -17.452 80.4015
lradius 107.401
lwrist -3.96262
lhand -30.0146 -4.80522
lfingers 7.12502
lthumb -3.3316 25.1485
rfemur -47.3773 -12.0444 20.0502
rtibia 76.2994
rfoot -22.2893 -2.73441
rtoes -42.1489
lfemur -33.3912 10.63 -28.1974
ltibia 93.6085
lfoot -5.0825 -8.7593
ltoes -22.7977
94
root -1.22024 14.7208 -6.17489 -203.417 28.6275 -194.057
lowerback 19.5813 -3.39029 -1.48091
upperback 3.48827 -3.99672 2.92662
thorax -6.82769 -1.65743 4.9683
lowerneck -12.9327 7.58705 4.83678
upperneck 16.2443 12.0697 -11.2704
head 8.17299 5.24419 -3.1119
rclavicle -4.01545e-014 5.40694e-014
rhumerus -45.0789 -25.4383 -27.2117
rradius 97.9346
rwrist -18.3584
rhand -30.0575 -5.57079
rfingers 7.12502
rthumb -3.37294 -35.5239
lclavicle -4.01545e-014 5.40694e-014
lhumerus -54.2603 -17.9891 80.7738
lradius 106.557
lwrist -2.73182
lhand -29.8292 -4.70003
lfingers 7.12502
lthumb -3.15255 25.2564
rfemur -46.4983 -11.8041 20.6154
rtibia 73.831
rfoot -20.989 -1.87562
rtoes -41.3663
lfemur -33.1106 10.9222 -27.9384
ltibia 94.325
lfoot -1.93169 -11.0847
ltoes -18.2127
95
root -1.21477 14.7505 -6.5785 -204.197 29.0877 -194.341
lowerback 19.7598 -3.48549 -1.20008
upperback 3.65398 -4.02376 3.04364
thorax -6.75213 -1.66574 4.94552
lowerneck -12.7721 7.7709 5.08083
upperneck 16.5453 12.4615 -11.7491
head 8.32979 5.4136 -3.25986
rclavicle -3.34952e-014 -1.27222e-014
rhumerus -42.0132 -27.533 -26.2349
rradius 99.5128
rwrist -17.813
rhand -30.0421 -5.23243
rfingers 7.12502
rthumb -3.35809 -35.1857
lclavicle -3.34952e-014 -1.27222e-014
lhumerus -55.5959 -18.5727 81.4096
lradius 105.535
lwrist -1.03287
lhand -29.6098 -4.66504
lfingers 7.12502
lthumb -2.94067 25.2944
rfemur -45.37 -11.4844 21.0075
rtibia 71.3994
rfoot -19.3058 -0.850413
rtoes -40.0546
lfemur -32.8392 11.1293 -27.5447
ltibia 94.8266
lfoot 0.460094 -12.4571
ltoes -12.9486
96
root -1.20728 14.7738 -6.98196 -205.034 29.5244 -194.687
lowerback 19.9546 -3.53647 -0.949709
upperback 3.78833 -4.00293 3.14607
thorax -6.72222 -1.65002 4.91577
lowerneck -12.5671 7.90645 5.28495
upperneck 16.8839 12.8007 -12.1857
head 8.48402 5.56146 -3.39641
rclavicle -2.08724e-015 4.45278e-014
rhumerus -38.8032 -29.3832 -25.7262
rradius 101.058
rwrist -17.0613
rhand -29.9892 -4.85675
rfingers 7.12502
rthumb -3.30702 -34.8108
lclavicle -2.08724e-015 4.45278e-014
lhumerus -56.8974 -19.1783 82.2512
lradius 104.352
lwrist 0.743791
lhand -29.3712 -4.70969
lfingers 7.12502
lthumb -2.71019 25.2528
rfemur -44.0316 -11.0296 21.1181
rtibia 69.0294
rfoot -17.3594 0.37506
rtoes -38.131
lfemur -32.5463 11.2626 -27.1346
ltibia 95.0871
lfoot 1.90927 -12.7133
ltoes -7.76908
